<?xml version="1.0" encoding="UTF-8" standalone="no"?>
<!-- Created with Inkscape (http://www.inkscape.org/) -->

<svg
   xmlns:dc="http://purl.org/dc/elements/1.1/"
   xmlns:cc="http://creativecommons.org/ns#"
   xmlns:rdf="http://www.w3.org/1999/02/22-rdf-syntax-ns#"
   xmlns:svg="http://www.w3.org/2000/svg"
   xmlns="http://www.w3.org/2000/svg"
   xmlns:sodipodi="http://sodipodi.sourceforge.net/DTD/sodipodi-0.dtd"
   xmlns:inkscape="http://www.inkscape.org/namespaces/inkscape"
   version="1.1"
   id="svg2"
   xml:space="preserve"
   width="194.56"
   height="89.279999"
   viewBox="0 0 194.56 89.279999"
   sodipodi:docname="uart_povezave(1).svg"
   inkscape:version="0.92.4 (5da689c313, 2019-01-14)"><metadata
     id="metadata8"><rdf:RDF><cc:Work
         rdf:about=""><dc:format>image/svg+xml</dc:format><dc:type
           rdf:resource="http://purl.org/dc/dcmitype/StillImage" /><dc:title></dc:title></cc:Work></rdf:RDF></metadata><defs
     id="defs6"><clipPath
       clipPathUnits="userSpaceOnUse"
       id="clipPath18"><path
         d="M 0,0 H 608.33331 V 278.69458 H 0 Z"
         id="path16"
         inkscape:connector-curvature="0"
         style="clip-rule:evenodd" /></clipPath><clipPath
       clipPathUnits="userSpaceOnUse"
       id="clipPath30"><path
         d="M 0,0 H 608.33331 V 275.69785 H 0 Z"
         id="path28"
         inkscape:connector-curvature="0"
         style="clip-rule:evenodd" /></clipPath></defs><sodipodi:namedview
     pagecolor="#ffffff"
     bordercolor="#666666"
     borderopacity="1"
     objecttolerance="10"
     gridtolerance="10"
     guidetolerance="10"
     inkscape:pageopacity="0"
     inkscape:pageshadow="2"
     inkscape:window-width="676"
     inkscape:window-height="480"
     id="namedview4"
     showgrid="false"
     inkscape:zoom="2.1073191"
     inkscape:cx="97.279999"
     inkscape:cy="44.639999"
     inkscape:window-x="0"
     inkscape:window-y="0"
     inkscape:window-maximized="0"
     inkscape:current-layer="g10" /><g
     id="g10"
     inkscape:groupmode="layer"
     inkscape:label="uart_povezave(1)"
     transform="matrix(0.31999998,0,0,0.31999998,0,2.5653333e-6)"><g
       id="g12"><g
         id="g14"
         clip-path="url(#clipPath18)"><g
           id="g20"
           transform="scale(2.9967158)"><path
             d="M 0,0 H 203 V 93 H 0 Z"
             style="fill:#ffffff;fill-opacity:1;fill-rule:nonzero;stroke:none"
             id="path22"
             inkscape:connector-curvature="0" /></g></g></g><g
       id="g24"><g
         id="g26"
         clip-path="url(#clipPath30)"><g
           id="g32"
           transform="matrix(2.9967158,0,0,2.9967158,1.4983579,1.4983579)"><path
             d="m 10,31 h 42 c 0.590946,0 1.176216,0.05764 1.755806,0.17293 0.579594,0.115289 1.142376,0.286005 1.688339,0.51215 0.545963,0.226144 1.064621,0.503374 1.555977,0.831689 0.491356,0.328312 0.945969,0.701401 1.363834,1.119267 0.417866,0.417862 0.790955,0.872471 1.119267,1.363827 0.328312,0.491359 0.605537,1.010017 0.831684,1.55598 0.226147,0.545967 0.396866,1.108746 0.512154,1.68834 C 60.942352,38.82378 60.999996,39.409054 61,40 v 42 c -4e-6,0.59095 -0.05765,1.176216 -0.172939,1.755806 -0.115288,0.57959 -0.286007,1.142364 -0.512154,1.688332 -0.226147,0.545967 -0.503376,1.064621 -0.831688,1.555976 -0.328312,0.491356 -0.701397,0.945969 -1.119263,1.363839 -0.417865,0.417862 -0.872478,0.790947 -1.36383,1.119262 -0.49136,0.328308 -1.010018,0.605538 -1.555981,0.831688 -0.545963,0.226143 -1.108745,0.396858 -1.688339,0.512154 C 53.176216,90.942345 52.590946,90.999992 52,91 H 10 C 9.4090509,90.999992 8.8237801,90.942345 8.2441864,90.827057 7.6645932,90.711761 7.1018138,90.541046 6.5558481,90.314903 6.0098829,90.088753 5.4912224,89.811523 4.999867,89.483215 4.5085115,89.1549 4.0539021,88.781815 3.6360385,88.363953 3.2181749,87.946083 2.8450866,87.49147 2.5167732,87.000114 2.1884599,86.508759 1.9112301,85.990105 1.685084,85.444138 1.4589379,84.89817 1.2882206,84.335396 1.1729323,83.755806 1.057644,83.176216 0.99999994,82.59095 1,82 V 40 c -6e-8,-0.590946 0.057644,-1.17622 0.1729323,-1.755817 C 1.2882206,37.664589 1.4589379,37.10181 1.685084,36.555843 1.9112301,36.00988 2.1884599,35.491222 2.516773,34.999863 2.8450866,34.508507 3.2181749,34.053898 3.6360385,33.636036 4.0539021,33.21817 4.508512,32.845081 4.9998674,32.516769 5.4912229,32.188454 6.0098829,31.911224 6.5558481,31.68508 7.1018138,31.458935 7.6645932,31.288219 8.2441864,31.17293 8.8237801,31.057644 9.4090509,31 10,31 Z"
             style="fill:#f8cecc;fill-opacity:1;fill-rule:nonzero;stroke:none"
             id="path34"
             inkscape:connector-curvature="0" /><path
             d="m 10,31 h 42 c 0.590946,0 1.176216,0.05764 1.755806,0.17293 0.579594,0.115289 1.142376,0.286005 1.688339,0.51215 0.545963,0.226144 1.064621,0.503374 1.555977,0.831689 0.491356,0.328312 0.945969,0.701401 1.363834,1.119267 0.417866,0.417862 0.790955,0.872471 1.119267,1.363827 0.328312,0.491359 0.605537,1.010017 0.831684,1.55598 0.226147,0.545967 0.396866,1.108746 0.512154,1.68834 C 60.942352,38.82378 60.999996,39.409054 61,40 v 42 c -4e-6,0.59095 -0.05765,1.176216 -0.172939,1.755806 -0.115288,0.57959 -0.286007,1.142364 -0.512154,1.688332 -0.226147,0.545967 -0.503376,1.064621 -0.831688,1.555976 -0.328312,0.491356 -0.701397,0.945969 -1.119263,1.363839 -0.417865,0.417862 -0.872478,0.790947 -1.36383,1.119262 -0.49136,0.328308 -1.010018,0.605538 -1.555981,0.831688 -0.545963,0.226143 -1.108745,0.396858 -1.688339,0.512154 C 53.176216,90.942345 52.590946,90.999992 52,91 H 10 C 9.4090509,90.999992 8.8237801,90.942345 8.2441864,90.827057 7.6645932,90.711761 7.1018138,90.541046 6.5558481,90.314903 6.0098829,90.088753 5.4912224,89.811523 4.999867,89.483215 4.5085115,89.1549 4.0539021,88.781815 3.6360385,88.363953 3.2181749,87.946083 2.8450866,87.49147 2.5167732,87.000114 2.1884599,86.508759 1.9112301,85.990105 1.685084,85.444138 1.4589379,84.89817 1.2882206,84.335396 1.1729323,83.755806 1.057644,83.176216 0.99999994,82.59095 1,82 V 40 c -6e-8,-0.590946 0.057644,-1.17622 0.1729323,-1.755817 C 1.2882206,37.664589 1.4589379,37.10181 1.685084,36.555843 1.9112301,36.00988 2.1884599,35.491222 2.516773,34.999863 2.8450866,34.508507 3.2181749,34.053898 3.6360385,33.636036 4.0539021,33.21817 4.508512,32.845081 4.9998674,32.516769 5.4912229,32.188454 6.0098829,31.911224 6.5558481,31.68508 7.1018138,31.458935 7.6645932,31.288219 8.2441864,31.17293 8.8237801,31.057644 9.4090509,31 10,31 Z"
             style="fill:none;stroke:#b85450;stroke-width:1;stroke-linecap:butt;stroke-linejoin:miter;stroke-miterlimit:10;stroke-dasharray:none;stroke-opacity:1"
             id="path36"
             inkscape:connector-curvature="0" /></g><g
           id="g38"
           transform="matrix(2.9967158,0,0,2.9967158,122.86535,122.86535)"><text
             transform="translate(2.671875,11)"
             style="font-variant:normal;font-weight:normal;font-size:12px;font-family:Helvetica;-inkscape-font-specification:Helvetica;writing-mode:lr-tb;fill:#000000;fill-opacity:1;fill-rule:nonzero;stroke:none"
             id="text42"><tspan
               x="0 7.3300781"
               y="0"
               sodipodi:role="line"
               id="tspan40">TX</tspan></text>
<text
             transform="translate(1.34375,39)"
             style="font-variant:normal;font-weight:normal;font-size:12px;font-family:Helvetica;-inkscape-font-specification:Helvetica;writing-mode:lr-tb;fill:#000000;fill-opacity:1;fill-rule:nonzero;stroke:none"
             id="text46"><tspan
               x="0 8.6660156"
               y="0"
               sodipodi:role="line"
               id="tspan44">RX</tspan></text>
</g><g
           id="g48"
           transform="matrix(2.9967158,0,0,2.9967158,1.4983579,1.4983579)"><path
             d="M 141,76 H 67.370003"
             style="fill:none;stroke:#000000;stroke-width:1;stroke-linecap:butt;stroke-linejoin:miter;stroke-miterlimit:10;stroke-dasharray:none;stroke-opacity:1"
             id="path50"
             inkscape:connector-curvature="0" /><path
             d="m 62.119999,76 7.000004,-3.5 -1.75,3.5 1.75,3.5 z"
             style="fill:#000000;fill-opacity:1;fill-rule:nonzero;stroke:none"
             id="path52"
             inkscape:connector-curvature="0" /><path
             d="m 62.119999,76 7.000004,-3.5 -1.75,3.5 1.75,3.5 z"
             style="fill:none;stroke:#000000;stroke-width:1;stroke-linecap:butt;stroke-linejoin:miter;stroke-miterlimit:10;stroke-dasharray:none;stroke-opacity:1"
             id="path54"
             inkscape:connector-curvature="0" /><path
             d="m 150,31 h 42 c 0.59094,0 1.17621,0.05764 1.75581,0.17293 0.57959,0.115289 1.14237,0.286005 1.68833,0.51215 0.54596,0.226144 1.06462,0.503374 1.55598,0.831689 0.49137,0.328312 0.94597,0.701401 1.36383,1.119267 0.41786,0.417862 0.79096,0.872471 1.11925,1.363827 0.32832,0.491359 0.60555,1.010017 0.8317,1.55598 0.22615,0.545967 0.39686,1.108746 0.51216,1.68834 C 200.94234,38.82378 200.99998,39.409054 201,40 v 42 c -2e-5,0.59095 -0.0577,1.176216 -0.17296,1.755806 -0.11528,0.57959 -0.28599,1.142364 -0.51214,1.688332 -0.22615,0.545967 -0.50338,1.064621 -0.83168,1.555976 -0.32831,0.491356 -0.70141,0.945969 -1.11927,1.363839 -0.41786,0.417862 -0.87246,0.790947 -1.36384,1.119262 -0.49137,0.328308 -1.01003,0.605538 -1.55599,0.831688 -0.54596,0.226143 -1.10873,0.396858 -1.68832,0.512154 C 193.17621,90.942345 192.59094,90.999992 192,91 h -42 c -0.59096,-8e-6 -1.17624,-0.05765 -1.75584,-0.172943 -0.57959,-0.115296 -1.14237,-0.286011 -1.68833,-0.512154 -0.54597,-0.22615 -1.06462,-0.50338 -1.55597,-0.831688 -0.49136,-0.328315 -0.94597,-0.7014 -1.36383,-1.119262 -0.41788,-0.41787 -0.79097,-0.872483 -1.11929,-1.363839 -0.32832,-0.491355 -0.60555,-1.010009 -0.83168,-1.555976 -0.22615,-0.545968 -0.39687,-1.108742 -0.51215,-1.688332 C 141.05763,83.176216 140.99998,82.59095 141,82 V 40 c -2e-5,-0.590946 0.0576,-1.17622 0.17291,-1.755817 0.11528,-0.579594 0.286,-1.142373 0.51215,-1.68834 0.22613,-0.545963 0.50336,-1.064621 0.83168,-1.55598 0.32832,-0.491356 0.70141,-0.945965 1.11929,-1.363827 0.41786,-0.417866 0.87247,-0.790955 1.36383,-1.119267 0.49135,-0.328315 1.01,-0.605545 1.55597,-0.831689 0.54596,-0.226145 1.10874,-0.396861 1.68833,-0.51215 C 148.82376,31.057644 149.40904,31 150,31 Z"
             style="fill:#dae8fc;fill-opacity:1;fill-rule:nonzero;stroke:none"
             id="path56"
             inkscape:connector-curvature="0" /><path
             d="m 150,31 h 42 c 0.59094,0 1.17621,0.05764 1.75581,0.17293 0.57959,0.115289 1.14237,0.286005 1.68833,0.51215 0.54596,0.226144 1.06462,0.503374 1.55598,0.831689 0.49137,0.328312 0.94597,0.701401 1.36383,1.119267 0.41786,0.417862 0.79096,0.872471 1.11925,1.363827 0.32832,0.491359 0.60555,1.010017 0.8317,1.55598 0.22615,0.545967 0.39686,1.108746 0.51216,1.68834 C 200.94234,38.82378 200.99998,39.409054 201,40 v 42 c -2e-5,0.59095 -0.0577,1.176216 -0.17296,1.755806 -0.11528,0.57959 -0.28599,1.142364 -0.51214,1.688332 -0.22615,0.545967 -0.50338,1.064621 -0.83168,1.555976 -0.32831,0.491356 -0.70141,0.945969 -1.11927,1.363839 -0.41786,0.417862 -0.87246,0.790947 -1.36384,1.119262 -0.49137,0.328308 -1.01003,0.605538 -1.55599,0.831688 -0.54596,0.226143 -1.10873,0.396858 -1.68832,0.512154 C 193.17621,90.942345 192.59094,90.999992 192,91 h -42 c -0.59096,-8e-6 -1.17624,-0.05765 -1.75584,-0.172943 -0.57959,-0.115296 -1.14237,-0.286011 -1.68833,-0.512154 -0.54597,-0.22615 -1.06462,-0.50338 -1.55597,-0.831688 -0.49136,-0.328315 -0.94597,-0.7014 -1.36383,-1.119262 -0.41788,-0.41787 -0.79097,-0.872483 -1.11929,-1.363839 -0.32832,-0.491355 -0.60555,-1.010009 -0.83168,-1.555976 -0.22615,-0.545968 -0.39687,-1.108742 -0.51215,-1.688332 C 141.05763,83.176216 140.99998,82.59095 141,82 V 40 c -2e-5,-0.590946 0.0576,-1.17622 0.17291,-1.755817 0.11528,-0.579594 0.286,-1.142373 0.51215,-1.68834 0.22613,-0.545963 0.50336,-1.064621 0.83168,-1.55598 0.32832,-0.491356 0.70141,-0.945965 1.11929,-1.363827 0.41786,-0.417866 0.87247,-0.790955 1.36383,-1.119267 0.49135,-0.328315 1.01,-0.605545 1.55597,-0.831689 0.54596,-0.226145 1.10874,-0.396861 1.68833,-0.51215 C 148.82376,31.057644 149.40904,31 150,31 Z"
             style="fill:none;stroke:#6c8ebf;stroke-width:1;stroke-linecap:butt;stroke-linejoin:miter;stroke-miterlimit:10;stroke-dasharray:none;stroke-opacity:1"
             id="path58"
             inkscape:connector-curvature="0" /></g><g
           id="g60"
           transform="matrix(2.9967158,0,0,2.9967158,431.52707,116.87192)"><text
             transform="translate(0,11)"
             style="font-variant:normal;font-weight:normal;font-size:12px;font-family:Helvetica;-inkscape-font-specification:Helvetica;writing-mode:lr-tb;fill:#000000;fill-opacity:1;fill-rule:nonzero;stroke:none"
             id="text64"><tspan
               x="0 8.6660156"
               y="0"
               sodipodi:role="line"
               id="tspan62">RX</tspan></text>
<text
             transform="translate(0,39)"
             style="font-variant:normal;font-weight:normal;font-size:12px;font-family:Helvetica;-inkscape-font-specification:Helvetica;writing-mode:lr-tb;fill:#000000;fill-opacity:1;fill-rule:nonzero;stroke:none"
             id="text68"><tspan
               x="0 7.3300781"
               y="0"
               sodipodi:role="line"
               id="tspan66">TX</tspan></text>
</g><g
           id="g70"
           transform="matrix(2.9967158,0,0,2.9967158,1.4983579,1.4983579)"><path
             d="m 61,46 h 73.63"
             style="fill:none;stroke:#000000;stroke-width:1;stroke-linecap:butt;stroke-linejoin:miter;stroke-miterlimit:10;stroke-dasharray:none;stroke-opacity:1"
             id="path72"
             inkscape:connector-curvature="0" /><path
             d="m 139.88,46 -7,3.5 1.75,-3.5 -1.75,-3.5 z"
             style="fill:#000000;fill-opacity:1;fill-rule:nonzero;stroke:none"
             id="path74"
             inkscape:connector-curvature="0" /><path
             d="m 139.88,46 -7,3.5 1.75,-3.5 -1.75,-3.5 z"
             style="fill:none;stroke:#000000;stroke-width:1;stroke-linecap:butt;stroke-linejoin:miter;stroke-miterlimit:10;stroke-dasharray:none;stroke-opacity:1"
             id="path76"
             inkscape:connector-curvature="0" /></g><g
           id="g78"
           transform="matrix(2.9967158,0,0,2.9967158,8.9901476,44.950737)"><text
             transform="translate(0.3125,11)"
             style="font-variant:normal;font-weight:normal;font-size:12px;font-family:Helvetica;-inkscape-font-specification:Helvetica;writing-mode:lr-tb;fill:#000000;fill-opacity:1;fill-rule:nonzero;stroke:none"
             id="text82"><tspan
               x="0 8.6660156 15.339844 22.013672 26.009766 32.683594 38.683594 45.357422 48.691406"
               y="0"
               sodipodi:role="line"
               id="tspan80">Naprava 1</tspan></text>
</g><g
           id="g84"
           transform="matrix(2.9967158,0,0,2.9967158,428.53036,44.950737)"><text
             transform="translate(0.3125,11)"
             style="font-variant:normal;font-weight:normal;font-size:12px;font-family:Helvetica;-inkscape-font-specification:Helvetica;writing-mode:lr-tb;fill:#000000;fill-opacity:1;fill-rule:nonzero;stroke:none"
             id="text88"><tspan
               x="0 8.6660156 15.339844 22.013672 26.009766 32.683594 38.683594 45.357422 48.691406"
               y="0"
               sodipodi:role="line"
               id="tspan86">Naprava 2</tspan></text>
</g><g
           id="g90"
           transform="matrix(2.9967158,0,0,2.9967158,236.74054,8.9901476)"><text
             transform="translate(0.359375,14)"
             style="font-variant:normal;font-weight:normal;font-size:16px;font-family:Helvetica;-inkscape-font-specification:Helvetica;writing-mode:lr-tb;fill:#000000;fill-opacity:1;fill-rule:nonzero;stroke:none"
             id="text94"><tspan
               x="0 11.554688 22.226562 33.5"
               y="0"
               sodipodi:role="line"
               id="tspan92">UART</tspan></text>
</g></g></g></g></svg>